<?xml version="1.0" encoding="UTF-8"?>
<svg width="530px" height="530px" viewBox="0 0 530 530" version="1.1" xmlns="http://www.w3.org/2000/svg" xmlns:xlink="http://www.w3.org/1999/xlink">
    <!-- Generator: Sketch 40.3 (33839) - http://www.bohemiancoding.com/sketch -->
    <title>Artboard</title>
    <desc>Created with Sketch.</desc>
    <defs></defs>
    <g id="Page-1" stroke="none" stroke-width="1" fill="none" fill-rule="evenodd">
        <g id="Artboard" fill="#FF9B5A">
            <g id="tab-killer" transform="translate(13.000000, 22.000000)">
                <g id="Group">
                    <path d="M380.645,246 C380.645,316.942 322.943,374.655 251.99,374.655 C181.048,374.655 123.335,316.943 123.335,246 C123.335,175.088 181.058,117.365 251.99,117.365 C322.953,117.365 380.645,175.078 380.645,246 L380.645,246 Z M251.99,88.969 C165.432,88.969 94.97,159.389 94.97,246 C94.97,332.611 165.432,403.041 251.99,403.041 C338.569,403.041 409.051,332.6 409.051,246 C409.051,159.39 338.569,88.97 251.99,88.97 L251.99,88.969 Z" id="Shape"></path>
                    <path d="M266.192,206.75 L266.192,0.322 L237.797,0.322 L237.797,206.74 C242.282,205.133 246.993,204.109 252,204.109 C257.007,204.109 261.707,205.133 266.192,206.751 L266.192,206.75 Z" id="Shape"></path>
                    <path d="M237.787,285.26 L237.787,491.678 L266.182,491.678 L266.182,285.26 C261.697,286.868 256.987,287.902 251.979,287.902 C246.971,287.902 242.271,286.868 237.787,285.26 L237.787,285.26 Z" id="Shape"></path>
                    <path d="M212.73,231.808 L0.609,231.808 L0.609,260.183 L212.73,260.183 C211.112,255.729 210.088,250.998 210.088,245.97 C210.088,240.994 211.112,236.252 212.73,231.808 L212.73,231.808 Z" id="Shape"></path>
                    <path d="M503.392,231.808 L291.25,231.808 C292.868,236.252 293.892,240.983 293.892,245.98 C293.892,250.998 292.868,255.738 291.25,260.193 L503.392,260.193 L503.392,231.807 L503.392,231.808 Z" id="Shape"></path>
                </g>
            </g>
        </g>
    </g>
</svg>